<svg width="80" height="80" viewBox="0 0 80 80" fill="none" xmlns="http://www.w3.org/2000/svg">
  <circle opacity="0.16" cx="40" cy="40" r="40" fill="#2F2F2F"/>
  <path d="M48.142 41.3238C45.8544 38.5619 42.963 37.0408 40.0001 37.0408C37.0371 37.0408 34.1456 38.5619 31.8582 41.3238C29.802 43.8064 28.5745 46.9352 28.5745 49.6934C28.5745 51.0332 28.9841 52.0537 29.7919 52.7267C30.5892 53.3911 31.6418 53.6158 32.8161 53.6157C34.0657 53.6157 35.4531 53.3612 36.8164 53.1112C38.0077 52.8926 39.1329 52.6862 40.0001 52.6862C40.7486 52.6862 41.804 52.8821 42.9212 53.0895C45.5321 53.5743 48.4914 54.1236 50.2009 52.7022C51.0136 52.0265 51.4256 51.0142 51.4256 49.6934C51.4257 46.9352 50.1982 43.8064 48.142 41.3238ZM48.9272 51.1704C47.9363 51.9944 45.3571 51.5155 43.2847 51.1309C42.0747 50.9062 40.9319 50.694 40 50.694C38.9515 50.694 37.7398 50.9164 36.4568 51.1517C34.4692 51.5163 31.9956 51.9701 31.0669 51.1963C30.9432 51.0931 30.5665 50.7793 30.5665 49.6933C30.5665 47.4191 31.6493 44.699 33.3923 42.5945C35.2945 40.2978 37.6412 39.0329 39.9999 39.0329C42.3587 39.0329 44.7053 40.2978 46.6075 42.5945C48.3506 44.699 49.4333 47.4191 49.4333 49.6933C49.4335 50.7495 49.0525 51.0663 48.9272 51.1704Z" fill="white"/>
  <path d="M48.3758 26.3262C47.5388 25.0921 46.3403 24.3845 45.0876 24.3845C43.8348 24.3845 42.6363 25.0923 41.7993 26.3262C41.0305 27.4598 40.607 28.9485 40.607 30.5181C40.607 32.0876 41.0304 33.5763 41.7993 34.71C42.6363 35.9439 43.8348 36.6517 45.0876 36.6517C46.3404 36.6517 47.5388 35.9439 48.3758 34.71C49.1447 33.5763 49.5681 32.0876 49.5681 30.5181C49.5681 28.9485 49.1447 27.4597 48.3758 26.3262ZM46.7271 33.5917C46.4567 33.9905 45.884 34.6596 45.0876 34.6596C44.2912 34.6596 43.7185 33.9906 43.448 33.5917C42.9085 32.7963 42.5991 31.676 42.5991 30.5181C42.5991 29.3601 42.9086 28.2398 43.448 27.4444C43.7185 27.0456 44.2912 26.3766 45.0876 26.3766C45.884 26.3766 46.4567 27.0456 46.7271 27.4444C47.2666 28.2398 47.576 29.3601 47.576 30.5181C47.5759 31.676 47.2666 32.7963 46.7271 33.5917Z" fill="white"/>
  <path d="M38.2007 26.326C37.3637 25.092 36.1653 24.3843 34.9125 24.3843C33.6596 24.3843 32.4611 25.092 31.6242 26.326C30.8554 27.4596 30.4319 28.9483 30.4319 30.5179C30.4319 32.0875 30.8553 33.5762 31.6242 34.7098C32.4612 35.9438 33.6596 36.6516 34.9125 36.6516C36.1653 36.6516 37.3637 35.9438 38.2007 34.7098C38.9696 33.5762 39.393 32.0875 39.393 30.5179C39.393 28.9483 38.9696 27.4596 38.2007 26.326ZM36.5519 33.5916C36.2814 33.9904 35.7087 34.6594 34.9124 34.6594C34.116 34.6594 33.5433 33.9904 33.2728 33.5916C32.7333 32.7962 32.424 31.6759 32.424 30.518C32.424 29.36 32.7334 28.2397 33.2728 27.4443C33.5433 27.0455 34.116 26.3765 34.9124 26.3765C35.7088 26.3765 36.2814 27.0454 36.5519 27.4443C37.0914 28.2397 37.4008 29.36 37.4008 30.518C37.4008 31.6759 37.0914 32.7962 36.5519 33.5916Z" fill="white"/>
  <path d="M56.802 35.9541C56.4646 34.8063 55.7414 33.9724 54.7657 33.6059C53.9805 33.3109 53.0942 33.3609 52.2699 33.7467C51.1341 34.2782 50.2056 35.3758 49.7229 36.7579C49.3284 37.8873 49.2791 39.0811 49.5844 40.1195C49.9218 41.2673 50.645 42.1013 51.6208 42.4678C51.9585 42.5946 52.3148 42.6576 52.6768 42.6576C53.1567 42.6576 53.6468 42.5468 54.1166 42.3269C55.2525 41.7954 56.1809 40.6979 56.6637 39.3158V39.3157C57.0581 38.1864 57.1074 36.9925 56.802 35.9541ZM54.7829 38.6588C54.4804 39.5248 53.9156 40.2215 53.2722 40.5226C53.0356 40.6332 52.6787 40.737 52.3213 40.6028C51.4588 40.2788 51.1233 38.7891 51.6034 37.4149C51.906 36.5489 52.4708 35.8521 53.1142 35.551C53.2711 35.4776 53.4808 35.4073 53.7084 35.4073C53.8242 35.4073 53.9447 35.4255 54.0651 35.4707C54.9276 35.7947 55.2631 37.2845 54.7829 38.6588Z" fill="white"/>
  <path d="M30.2773 36.7578C29.7944 35.3757 28.866 34.2782 27.7302 33.7467C26.9059 33.3609 26.0195 33.311 25.2344 33.6058C24.2586 33.9724 23.5354 34.8064 23.198 35.9541C22.8927 36.9925 22.9419 38.1863 23.3364 39.3157V39.3158C23.8193 40.6979 24.7477 41.7954 25.8835 42.3269C26.3534 42.5468 26.8434 42.6576 27.3233 42.6576C27.6854 42.6576 28.0417 42.5945 28.3793 42.4677C29.3552 42.1012 30.0784 41.2672 30.4158 40.1195C30.7209 39.0811 30.6717 37.8873 30.2773 36.7578ZM27.6787 40.6028C27.3214 40.7371 26.9644 40.6333 26.7278 40.5226C26.0844 40.2215 25.5196 39.5248 25.2171 38.6588V38.6589C24.7371 37.2846 25.0725 35.7949 25.935 35.4708C26.2922 35.3366 26.6493 35.4404 26.8859 35.5511C27.5294 35.8522 28.0942 36.5489 28.3966 37.4149C28.8767 38.7892 28.5412 40.2788 27.6787 40.6028Z" fill="white"/>
  </svg>
  